<svg xmlns="http://www.w3.org/2000/svg" width="297" height="181" viewBox="0 0 297 181" version="1.1">

  <!-- LAYER 1: OUTER EYE RINGS — Navy Blue -->
  <!-- 4 concentric eye/iris rings only -->
  <path stroke="none" fill="#31336a" fill-rule="evenodd" d="
    M 130 1.946 C 104.254 5.700, 76.536 19.002, 49.335 40.657 C 39.162 48.755, 13.004 73.761, 4.809 83.220 L -0.337 89.160 1.525 92.330 C 5.996 99.944, 24.666 122.476, 33.658 131.110 C 59.769 156.180, 90.423 172.508, 120.822 177.537 C 133.307 179.603, 162.015 179.129, 174.057 176.658 C 196.112 172.133, 219.841 161.750, 238.976 148.251 C 258.749 134.302, 279.390 113.423, 292.825 93.782 L 296.052 89.064 292.338 84.782 C 280.154 70.735, 256.676 48.620, 239.648 35.153 C 229.142 26.842, 209.123 15.060, 197.836 10.542 C 179.765 3.309, 172.451 1.829, 153 1.468 C 143.375 1.290, 133.025 1.504, 130 1.946
    M 127.500 13.905 C 93.592 20.966, 61.448 41.117, 26.173 77.423 C 15.315 88.599, 14.002 90.312, 15.150 91.805 C 30.727 112.053, 51.675 133.187, 65.128 142.225 C 80.897 152.819, 101.885 161.756, 120.341 165.735 C 130.652 167.958, 158.485 168.190, 167.500 166.127 C 193.394 160.203, 200.943 157.554, 216.500 148.932 C 236.438 137.881, 259.220 118.094, 274.319 98.715 L 281.138 89.962 278.121 86.152 C 272.407 78.938, 244.389 52.487, 234.953 45.399 C 215.763 30.985, 194.300 20.038, 176 15.332 C 162.627 11.893, 140.316 11.237, 127.500 13.905
    M 132.500 16.497 C 122.818 18.319, 117.780 20.307, 109.043 25.752 C 93.254 35.593, 81.688 50.563, 76.013 68.500 C 73.181 77.454, 72.821 96.933, 75.299 107.116 C 81.058 130.780, 99.834 151.543, 123.305 160.204 C 138.355 165.757, 160.940 165.210, 176.184 158.924 C 185.220 155.198, 188.943 152.866, 197.201 145.758 C 209.010 135.595, 217.109 122.013, 220.500 106.689 C 223.076 95.044, 222.240 74.973, 218.796 65.794 C 212.988 50.315, 201.755 35.994, 188.428 27.080 C 172.475 16.410, 152.775 12.683, 132.500 16.497
    M 140.340 28.112 C 126.091 29.441, 113.161 35.940, 102.401 47.181 C 90.615 59.493, 86 71.260, 86 89 C 86 107.008, 90.781 119.496, 102.355 131.716 C 114.324 144.353, 126.264 150.412, 142.125 151.896 C 162.674 153.819, 179.998 147.309, 193.910 132.437 C 204.289 121.341, 210.060 106.531, 210.113 90.849 C 210.173 73.453, 203.771 57.984, 191.364 45.545 C 177.862 32.006, 160.859 26.197, 140.340 28.112"/>

  <!-- LAYER 2: INNER GEAR/DOT MECHANISM — Orange, nonzero fill to prevent holes -->
  <path stroke="none" fill="#fa8d08" fill-rule="evenodd" d="
    M 135.017 39.293 C 132.866 40.375, 131.839 42.252, 130.410 47.710 C 130.236 48.375, 128.261 50.247, 126.022 51.869 C 122.039 54.754, 121.864 54.786, 118.086 53.302 C 114.785 52.005, 113.812 51.982, 111.397 53.142 C 107.578 54.978, 106.104 59.983, 108.366 63.436 C 109.913 65.797, 109.869 66.240, 107.557 71.468 C 105.709 75.645, 104.596 77, 103.010 77 C 100.094 77, 96 81.380, 96 84.500 C 96 89.804, 102.997 93.678, 107.869 91.070 C 110.403 89.714, 116.011 94.240, 115.277 97.049 C 114.982 98.176, 115.516 100.818, 116.464 102.919 C 118.049 106.435, 118.060 106.983, 116.600 109.806 C 115.421 112.087, 114.206 112.953, 111.856 113.186 C 109.830 113.387, 107.982 114.463, 106.701 116.186 C 104.936 118.561, 104.854 119.232, 105.989 121.975 C 108.485 127.999, 113.723 128.634, 118.565 123.500 C 121.499 120.389, 122.433 120, 126.964 120 C 130.917 120, 132.202 120.393, 132.683 121.750 C 133.948 125.316, 136.295 127, 140 127 C 145.003 127, 147.501 124.163, 147.339 118.666 C 147.172 112.998, 148.369 111.786, 153.404 112.525 C 156.233 112.940, 158.113 112.672, 159.480 111.658 C 161.249 110.347, 161.754 110.400, 164.230 112.164 C 166.462 113.753, 167 114.909, 167 118.114 C 167 125.790, 174.471 129.620, 179.545 124.545 C 182.138 121.953, 182.694 118.165, 180.957 114.919 C 180.110 113.336, 180.601 111.933, 183.571 107.459 C 187.143 102.077, 190.131 99.465, 191.336 100.670 C 191.666 100.999, 193.281 100.712, 194.924 100.031 C 196.951 99.192, 198.285 97.665, 199.070 95.287 C 200.074 92.247, 199.966 91.431, 198.262 89.141 C 197.055 87.519, 195.009 86.307, 192.962 86 C 190.399 85.616, 188.835 84.396, 186.208 80.733 C 182.808 75.994, 182.798 75.946, 184.431 72.504 C 185.906 69.397, 185.920 68.746, 184.574 66.143 C 182.963 63.028, 181.205 62, 177.491 62 C 173.949 62, 170.747 57.394, 171.626 53.566 C 172.708 48.853, 172.287 46.659, 169.935 44.750 C 167.077 42.431, 162.862 42.534, 159.727 45 C 155.978 47.949, 146 47.635, 146 44.567 C 146 42.987, 142.066 39.398, 139.500 38.637 C 138.400 38.311, 136.382 38.606, 135.017 39.293 M 144.250 49.944 C 142.256 51.607, 142 52.743, 142 59.935 C 142 67.579, 142.139 68.102, 144.399 68.962 C 147.330 70.076, 150 73.703, 150 76.571 C 150 78.083, 151.154 79.217, 154.002 80.501 C 157.877 82.248, 158.070 82.247, 160.064 80.442 C 161.197 79.417, 164.233 78.336, 166.812 78.039 L 171.500 77.500 171.298 69.647 C 171.055 60.220, 169.434 57, 164.931 57 C 161.727 57, 157 53.222, 157 50.662 C 157 47.624, 147.661 47.098, 144.250 49.944 M 126.231 53.250 C 120.758 57.713, 120.628 61.827, 125.850 65.280 C 133.633 70.426, 136.064 71.304, 138.674 69.907 C 140.945 68.691, 141.059 68.187, 140.787 60.561 C 140.629 56.127, 140.275 52.666, 140 52.868 C 139.725 53.070, 137.758 52.508, 135.628 51.618 C 130.601 49.518, 130.864 49.472, 126.231 53.250 M 116.249 66.032 C 115.011 66.529, 113.412 66.712, 112.696 66.437 C 111.857 66.115, 110.581 67.899, 109.109 71.449 L 106.825 76.962 108.912 79.616 C 110.069 81.086, 111 83.738, 111 85.562 C 111 89.886, 115.011 93.307, 118.871 92.274 C 120.317 91.887, 122.700 91.646, 124.166 91.738 C 126.154 91.864, 127.870 90.780, 130.916 87.475 C 134.570 83.511, 135 82.513, 135 77.997 L 135 72.949 128.750 68.984 C 122.374 64.939, 120.228 64.432, 116.249 66.032 M 172.948 78.098 C 172.187 79.519, 172.187 81.037, 172.949 83.345 C 173.850 86.075, 174.891 86.889, 179.476 88.447 C 183.938 89.964, 185.211 90.070, 186.466 89.028 C 188.647 87.218, 188.380 86.067, 184.634 81.126 C 181.946 77.581, 180.626 76.690, 177.668 76.425 C 174.835 76.171, 173.779 76.545, 172.948 78.098 M 145.500 82.548 C 143.850 83.310, 141.368 83.711, 139.985 83.439 C 137.990 83.047, 136.555 83.877, 133.033 87.467 C 128.736 91.845, 128.592 92.193, 128.526 98.417 C 128.463 104.383, 128.711 105.138, 131.979 108.896 C 135.174 112.571, 135.980 112.964, 140.686 113.148 C 146.960 113.394, 149.139 111.947, 148.360 108.051 C 147.579 104.147, 150.375 99.174, 153.768 98.431 C 158.312 97.436, 158.485 97.331, 159.893 94.699 C 162.612 89.620, 155.812 80.623, 149.601 81.081 C 148.995 81.126, 147.150 81.786, 145.500 82.548 M 169.617 90.457 C 167.481 91.765, 165.149 92.611, 164.434 92.336 C 163.687 92.049, 162.439 93.183, 161.496 95.008 C 159.998 97.905, 159.992 98.463, 161.428 101.490 C 162.293 103.312, 163 105.928, 163 107.303 C 163 110.974, 168.289 114.144, 172.162 112.794 C 173.737 112.245, 175.696 112.053, 176.516 112.368 C 177.532 112.758, 179.575 110.798, 182.924 106.220 C 187.072 100.549, 187.636 99.266, 186.538 98 C 185.822 97.175, 184.926 95.480, 184.546 94.233 C 183.924 92.193, 180.814 90.295, 175.413 88.659 C 174.287 88.318, 171.903 89.057, 169.617 90.457 M 119.092 107.697 C 117.694 110.766, 117.718 112.004, 119.237 115.223 C 120.518 117.937, 123.412 119, 129.518 119 C 132.557 119, 134 117.679, 134 114.896 C 134 114.379, 132.171 111.971, 129.936 109.546 C 125.150 104.354, 120.942 103.637, 119.092 107.697"/>

</svg>